<svg xmlns="http://www.w3.org/2000/svg" width="33" height="33" viewBox="0 0 33 33">
    <g fill="none" fill-rule="nonzero" transform="translate(1 1)">
        <circle cx="15.5" cy="15.5" r="15.5" stroke="#FFF"/>
        <path fill="#FFF" d="M22 16.744V21h-2.572v-3.97c0-.998-.372-1.68-1.303-1.68-.71 0-1.134.46-1.32.903-.067.16-.085.38-.085.602V21h-2.573s.035-6.725 0-7.422h2.573v1.052l-.017.024h.017v-.024c.342-.505.952-1.227 2.318-1.227 1.693 0 2.962 1.061 2.962 3.341zM11.456 10c-.88 0-1.456.554-1.456 1.282 0 .713.559 1.283 1.422 1.283h.017c.897 0 1.455-.57 1.455-1.283-.017-.728-.558-1.282-1.438-1.282zm-1.303 11h2.572v-7.422h-2.572V21z"/>
    </g>
</svg>
