<svg xmlns="http://www.w3.org/2000/svg" width="33" height="33" viewBox="0 0 33 33">
    <g fill="none" fill-rule="evenodd" transform="translate(1 1)">
        <circle cx="15.5" cy="15.5" r="15.5" fill-rule="nonzero" stroke="#FFF"/>
        <path fill="#FFF" d="M18.774 10.002L17.334 10c-1.616 0-2.66 1.063-2.66 2.707v1.248h-1.448c-.125 0-.226.1-.226.225v1.808c0 .124.101.224.226.224h1.447v4.564c0 .124.102.224.227.224h1.887c.125 0 .227-.1.227-.224v-4.564h1.692c.125 0 .226-.1.226-.224V14.18a.224.224 0 0 0-.226-.225h-1.692v-1.058c0-.508.122-.767.79-.767h.97c.125 0 .226-.1.226-.224v-1.68a.225.225 0 0 0-.226-.224z"/>
    </g>
</svg>
