<svg xmlns="http://www.w3.org/2000/svg" width="33" height="33" viewBox="0 0 33 33">
    <g fill="none" fill-rule="evenodd" transform="translate(1 1)">
        <circle cx="15.5" cy="15.5" r="15.5" fill-rule="nonzero" stroke="#FFF"/>
        <path fill="#FFF" d="M20.961 10c1.355.035 2.032.784 2.039 2.25 0 .096-.003.196-.009.299-.06 1.242-1.008 2.935-2.85 5.077-1.9 2.245-3.512 3.368-4.836 3.374-.823 0-1.507-.687-2.055-2.062l-.577-1.884-.57-1.882c-.419-1.364-.867-2.044-1.346-2.044-.105 0-.468.199-1.092.595L9 12.957l1.032-.835 1.014-.826c.909-.71 1.6-1.093 2.074-1.15.063-.007.126-.009.19-.009.974 0 1.582.682 1.82 2.045.133.777.243 1.409.332 1.894.087.487.16.826.217 1.02.322 1.288.669 1.936 1.041 1.941.286 0 .727-.42 1.322-1.26.581-.863.894-1.502.935-1.918a1.58 1.58 0 0 0 .017-.237c0-.564-.318-.844-.952-.844-.322 0-.665.066-1.032.195.658-1.976 1.923-2.966 3.794-2.973h.157z"/>
    </g>
</svg>
